<mxfile host="app.diagrams.net" modified="2024-04-23T09:27:02.596Z" agent="Mozilla/5.0 (X11; Linux x86_64) AppleWebKit/537.36 (KHTML, like Gecko) Chrome/124.0.0.0 Safari/537.36" etag="coewjm6OHNZwxNaj9fF8" version="24.2.3" type="device">
  <diagram name="Page-1" id="y9fdvsJP01LTRV1NXIzd">
    <mxGraphModel dx="2085" dy="1776" grid="1" gridSize="10" guides="1" tooltips="1" connect="1" arrows="1" fold="1" page="1" pageScale="1" pageWidth="850" pageHeight="1100" math="0" shadow="0">
      <root>
        <mxCell id="0" />
        <mxCell id="1" parent="0" />
        <mxCell id="dB53JGvOFBfMMkXf-lnQ-2" value="Cartão Dador" style="rounded=0;whiteSpace=wrap;html=1;" vertex="1" parent="1">
          <mxGeometry x="40" y="280" width="80" height="40" as="geometry" />
        </mxCell>
        <mxCell id="dB53JGvOFBfMMkXf-lnQ-16" value="Clinica" style="rounded=0;whiteSpace=wrap;html=1;" vertex="1" parent="1">
          <mxGeometry x="40" y="40" width="80" height="40" as="geometry" />
        </mxCell>
        <mxCell id="dB53JGvOFBfMMkXf-lnQ-24" value="Pessoa" style="rounded=0;whiteSpace=wrap;html=1;" vertex="1" parent="1">
          <mxGeometry x="400" y="40" width="80" height="40" as="geometry" />
        </mxCell>
        <mxCell id="dB53JGvOFBfMMkXf-lnQ-25" value="Dador" style="rounded=0;whiteSpace=wrap;html=1;" vertex="1" parent="1">
          <mxGeometry x="280" y="220" width="80" height="40" as="geometry" />
        </mxCell>
        <mxCell id="dB53JGvOFBfMMkXf-lnQ-26" value="Paciente" style="rounded=0;whiteSpace=wrap;html=1;" vertex="1" parent="1">
          <mxGeometry x="530" y="640" width="80" height="40" as="geometry" />
        </mxCell>
        <mxCell id="dB53JGvOFBfMMkXf-lnQ-27" value="Staff" style="rounded=0;whiteSpace=wrap;html=1;" vertex="1" parent="1">
          <mxGeometry x="705" y="220" width="80" height="40" as="geometry" />
        </mxCell>
        <mxCell id="dB53JGvOFBfMMkXf-lnQ-29" value="Bolsa" style="rounded=0;whiteSpace=wrap;html=1;" vertex="1" parent="1">
          <mxGeometry x="280" y="460" width="80" height="40" as="geometry" />
        </mxCell>
        <mxCell id="dB53JGvOFBfMMkXf-lnQ-30" value="Laboratório" style="rounded=0;whiteSpace=wrap;html=1;" vertex="1" parent="1">
          <mxGeometry x="40" y="560" width="80" height="40" as="geometry" />
        </mxCell>
        <mxCell id="dB53JGvOFBfMMkXf-lnQ-31" value="Medico" style="rounded=0;whiteSpace=wrap;html=1;" vertex="1" parent="1">
          <mxGeometry x="770" y="380" width="80" height="40" as="geometry" />
        </mxCell>
        <mxCell id="dB53JGvOFBfMMkXf-lnQ-32" value="Enfermeiro" style="rounded=0;whiteSpace=wrap;html=1;" vertex="1" parent="1">
          <mxGeometry x="580" y="380" width="80" height="40" as="geometry" />
        </mxCell>
        <mxCell id="dB53JGvOFBfMMkXf-lnQ-33" value="Ficha Medica" style="rounded=0;whiteSpace=wrap;html=1;" vertex="1" parent="1">
          <mxGeometry x="770" y="560" width="80" height="40" as="geometry" />
        </mxCell>
        <mxCell id="dB53JGvOFBfMMkXf-lnQ-34" value="Tem" style="rhombus;whiteSpace=wrap;html=1;" vertex="1" parent="1">
          <mxGeometry x="260" y="40" width="40" height="40" as="geometry" />
        </mxCell>
        <mxCell id="dB53JGvOFBfMMkXf-lnQ-36" value="Fornece" style="rhombus;whiteSpace=wrap;html=1;" vertex="1" parent="1">
          <mxGeometry x="50" y="160" width="60" height="40" as="geometry" />
        </mxCell>
        <mxCell id="dB53JGvOFBfMMkXf-lnQ-37" value="Tem" style="rhombus;whiteSpace=wrap;html=1;" vertex="1" parent="1">
          <mxGeometry x="200" y="280" width="40" height="40" as="geometry" />
        </mxCell>
        <mxCell id="dB53JGvOFBfMMkXf-lnQ-38" value="Doa" style="rhombus;whiteSpace=wrap;html=1;" vertex="1" parent="1">
          <mxGeometry x="300" y="320" width="40" height="40" as="geometry" />
        </mxCell>
        <mxCell id="dB53JGvOFBfMMkXf-lnQ-39" value="Testa" style="rhombus;whiteSpace=wrap;html=1;" vertex="1" parent="1">
          <mxGeometry x="180" y="460" width="40" height="40" as="geometry" />
        </mxCell>
        <mxCell id="dB53JGvOFBfMMkXf-lnQ-40" value="Faz" style="rhombus;whiteSpace=wrap;html=1;" vertex="1" parent="1">
          <mxGeometry x="790" y="480" width="40" height="40" as="geometry" />
        </mxCell>
        <mxCell id="dB53JGvOFBfMMkXf-lnQ-41" value="Coletada por" style="rhombus;whiteSpace=wrap;html=1;" vertex="1" parent="1">
          <mxGeometry x="430" y="450" width="80" height="60" as="geometry" />
        </mxCell>
        <mxCell id="dB53JGvOFBfMMkXf-lnQ-43" value="&lt;div&gt;&lt;br&gt;&lt;/div&gt;Admininstrada&lt;div&gt;em&lt;/div&gt;" style="rhombus;whiteSpace=wrap;html=1;" vertex="1" parent="1">
          <mxGeometry x="275" y="635" width="90" height="50" as="geometry" />
        </mxCell>
        <mxCell id="dB53JGvOFBfMMkXf-lnQ-46" value="&lt;div&gt;&lt;br&gt;&lt;/div&gt;Admininstrada&lt;div&gt;por&lt;/div&gt;" style="rhombus;whiteSpace=wrap;html=1;" vertex="1" parent="1">
          <mxGeometry x="525" y="500" width="90" height="50" as="geometry" />
        </mxCell>
        <mxCell id="dB53JGvOFBfMMkXf-lnQ-47" value="" style="triangle;whiteSpace=wrap;html=1;rotation=-90;" vertex="1" parent="1">
          <mxGeometry x="420" y="120" width="40" height="40" as="geometry" />
        </mxCell>
        <mxCell id="dB53JGvOFBfMMkXf-lnQ-48" value="IS-A" style="text;html=1;align=center;verticalAlign=middle;resizable=0;points=[];autosize=1;strokeColor=none;fillColor=none;" vertex="1" parent="1">
          <mxGeometry x="415" y="135" width="50" height="30" as="geometry" />
        </mxCell>
        <mxCell id="dB53JGvOFBfMMkXf-lnQ-51" value="" style="triangle;whiteSpace=wrap;html=1;rotation=-90;" vertex="1" parent="1">
          <mxGeometry x="725" y="300" width="40" height="40" as="geometry" />
        </mxCell>
        <mxCell id="dB53JGvOFBfMMkXf-lnQ-52" value="IS-A" style="text;html=1;align=center;verticalAlign=middle;resizable=0;points=[];autosize=1;strokeColor=none;fillColor=none;" vertex="1" parent="1">
          <mxGeometry x="720" y="315" width="50" height="30" as="geometry" />
        </mxCell>
        <mxCell id="dB53JGvOFBfMMkXf-lnQ-53" style="edgeStyle=none;rounded=0;orthogonalLoop=1;jettySize=auto;html=1;entryX=0.5;entryY=0;entryDx=0;entryDy=0;endArrow=none;endFill=0;exitX=0.5;exitY=1;exitDx=0;exitDy=0;" edge="1" parent="1" source="dB53JGvOFBfMMkXf-lnQ-16" target="dB53JGvOFBfMMkXf-lnQ-36">
          <mxGeometry relative="1" as="geometry">
            <mxPoint x="400" y="150" as="sourcePoint" />
            <mxPoint x="400" y="240" as="targetPoint" />
          </mxGeometry>
        </mxCell>
        <mxCell id="dB53JGvOFBfMMkXf-lnQ-54" style="edgeStyle=none;rounded=0;orthogonalLoop=1;jettySize=auto;html=1;entryX=0.5;entryY=0;entryDx=0;entryDy=0;endArrow=none;endFill=0;exitX=0.5;exitY=1;exitDx=0;exitDy=0;" edge="1" parent="1" source="dB53JGvOFBfMMkXf-lnQ-36" target="dB53JGvOFBfMMkXf-lnQ-2">
          <mxGeometry relative="1" as="geometry">
            <mxPoint x="130" y="130" as="sourcePoint" />
            <mxPoint x="130" y="170" as="targetPoint" />
          </mxGeometry>
        </mxCell>
        <mxCell id="dB53JGvOFBfMMkXf-lnQ-55" style="edgeStyle=none;rounded=0;orthogonalLoop=1;jettySize=auto;html=1;entryX=0;entryY=0.5;entryDx=0;entryDy=0;endArrow=none;endFill=0;exitX=1;exitY=0.5;exitDx=0;exitDy=0;" edge="1" parent="1" source="dB53JGvOFBfMMkXf-lnQ-16" target="dB53JGvOFBfMMkXf-lnQ-34">
          <mxGeometry relative="1" as="geometry">
            <mxPoint x="140" y="140" as="sourcePoint" />
            <mxPoint x="140" y="180" as="targetPoint" />
          </mxGeometry>
        </mxCell>
        <mxCell id="dB53JGvOFBfMMkXf-lnQ-56" style="edgeStyle=none;rounded=0;orthogonalLoop=1;jettySize=auto;html=1;entryX=0;entryY=0.5;entryDx=0;entryDy=0;endArrow=none;endFill=0;exitX=1;exitY=0.5;exitDx=0;exitDy=0;" edge="1" parent="1" source="dB53JGvOFBfMMkXf-lnQ-34" target="dB53JGvOFBfMMkXf-lnQ-24">
          <mxGeometry relative="1" as="geometry">
            <mxPoint x="150" y="150" as="sourcePoint" />
            <mxPoint x="150" y="190" as="targetPoint" />
          </mxGeometry>
        </mxCell>
        <mxCell id="dB53JGvOFBfMMkXf-lnQ-57" style="edgeStyle=none;rounded=0;orthogonalLoop=1;jettySize=auto;html=1;entryX=1;entryY=0.5;entryDx=0;entryDy=0;endArrow=none;endFill=0;exitX=0.5;exitY=1;exitDx=0;exitDy=0;" edge="1" parent="1" source="dB53JGvOFBfMMkXf-lnQ-24" target="dB53JGvOFBfMMkXf-lnQ-47">
          <mxGeometry relative="1" as="geometry">
            <mxPoint x="160" y="160" as="sourcePoint" />
            <mxPoint x="160" y="200" as="targetPoint" />
          </mxGeometry>
        </mxCell>
        <mxCell id="dB53JGvOFBfMMkXf-lnQ-58" style="edgeStyle=none;rounded=0;orthogonalLoop=1;jettySize=auto;html=1;entryX=1;entryY=0.5;entryDx=0;entryDy=0;endArrow=none;endFill=0;exitX=0;exitY=0.5;exitDx=0;exitDy=0;shape=link;" edge="1" parent="1" source="dB53JGvOFBfMMkXf-lnQ-37" target="dB53JGvOFBfMMkXf-lnQ-2">
          <mxGeometry relative="1" as="geometry">
            <mxPoint x="170" y="170" as="sourcePoint" />
            <mxPoint x="170" y="210" as="targetPoint" />
          </mxGeometry>
        </mxCell>
        <mxCell id="dB53JGvOFBfMMkXf-lnQ-59" style="edgeStyle=none;rounded=0;orthogonalLoop=1;jettySize=auto;html=1;entryX=1;entryY=0.5;entryDx=0;entryDy=0;endArrow=none;endFill=0;exitX=0;exitY=0.5;exitDx=0;exitDy=0;" edge="1" parent="1" source="dB53JGvOFBfMMkXf-lnQ-25" target="dB53JGvOFBfMMkXf-lnQ-37">
          <mxGeometry relative="1" as="geometry">
            <mxPoint x="225" y="160" as="sourcePoint" />
            <mxPoint x="285" y="280" as="targetPoint" />
          </mxGeometry>
        </mxCell>
        <mxCell id="dB53JGvOFBfMMkXf-lnQ-60" style="edgeStyle=none;rounded=0;orthogonalLoop=1;jettySize=auto;html=1;entryX=0.5;entryY=0;entryDx=0;entryDy=0;endArrow=none;endFill=0;exitX=0.5;exitY=1;exitDx=0;exitDy=0;" edge="1" parent="1" source="dB53JGvOFBfMMkXf-lnQ-25" target="dB53JGvOFBfMMkXf-lnQ-38">
          <mxGeometry relative="1" as="geometry">
            <mxPoint x="190" y="190" as="sourcePoint" />
            <mxPoint x="190" y="230" as="targetPoint" />
          </mxGeometry>
        </mxCell>
        <mxCell id="dB53JGvOFBfMMkXf-lnQ-61" style="edgeStyle=none;rounded=0;orthogonalLoop=1;jettySize=auto;html=1;entryX=0.5;entryY=0;entryDx=0;entryDy=0;endArrow=none;endFill=0;exitX=0.5;exitY=1;exitDx=0;exitDy=0;shape=link;" edge="1" parent="1" source="dB53JGvOFBfMMkXf-lnQ-38" target="dB53JGvOFBfMMkXf-lnQ-29">
          <mxGeometry relative="1" as="geometry">
            <mxPoint x="200" y="200" as="sourcePoint" />
            <mxPoint x="200" y="240" as="targetPoint" />
          </mxGeometry>
        </mxCell>
        <mxCell id="dB53JGvOFBfMMkXf-lnQ-62" style="edgeStyle=none;rounded=0;orthogonalLoop=1;jettySize=auto;html=1;entryX=0;entryY=0.5;entryDx=0;entryDy=0;endArrow=none;endFill=0;exitX=0.5;exitY=0;exitDx=0;exitDy=0;" edge="1" parent="1" source="dB53JGvOFBfMMkXf-lnQ-30" target="dB53JGvOFBfMMkXf-lnQ-39">
          <mxGeometry relative="1" as="geometry">
            <mxPoint x="210" y="250" as="sourcePoint" />
            <mxPoint x="210" y="290" as="targetPoint" />
            <Array as="points">
              <mxPoint x="80" y="480" />
            </Array>
          </mxGeometry>
        </mxCell>
        <mxCell id="dB53JGvOFBfMMkXf-lnQ-63" style="edgeStyle=none;rounded=0;orthogonalLoop=1;jettySize=auto;html=1;entryX=1;entryY=0.5;entryDx=0;entryDy=0;endArrow=none;endFill=0;exitX=0;exitY=0.5;exitDx=0;exitDy=0;shape=link;" edge="1" parent="1" source="dB53JGvOFBfMMkXf-lnQ-29" target="dB53JGvOFBfMMkXf-lnQ-39">
          <mxGeometry relative="1" as="geometry">
            <mxPoint x="220" y="280" as="sourcePoint" />
            <mxPoint x="220" y="320" as="targetPoint" />
          </mxGeometry>
        </mxCell>
        <mxCell id="dB53JGvOFBfMMkXf-lnQ-64" style="edgeStyle=none;rounded=0;orthogonalLoop=1;jettySize=auto;html=1;entryX=0.5;entryY=0;entryDx=0;entryDy=0;endArrow=none;endFill=0;exitX=0.3;exitY=0.833;exitDx=0;exitDy=0;exitPerimeter=0;" edge="1" parent="1" source="dB53JGvOFBfMMkXf-lnQ-48" target="dB53JGvOFBfMMkXf-lnQ-25">
          <mxGeometry relative="1" as="geometry">
            <mxPoint x="230" y="230" as="sourcePoint" />
            <mxPoint x="230" y="270" as="targetPoint" />
          </mxGeometry>
        </mxCell>
        <mxCell id="dB53JGvOFBfMMkXf-lnQ-65" style="edgeStyle=none;rounded=0;orthogonalLoop=1;jettySize=auto;html=1;entryX=0.5;entryY=0;entryDx=0;entryDy=0;endArrow=none;endFill=0;exitX=0.7;exitY=0.833;exitDx=0;exitDy=0;exitPerimeter=0;" edge="1" parent="1" source="dB53JGvOFBfMMkXf-lnQ-48" target="dB53JGvOFBfMMkXf-lnQ-27">
          <mxGeometry relative="1" as="geometry">
            <mxPoint x="450" y="200" as="sourcePoint" />
            <mxPoint x="240" y="280" as="targetPoint" />
          </mxGeometry>
        </mxCell>
        <mxCell id="dB53JGvOFBfMMkXf-lnQ-66" style="edgeStyle=none;rounded=0;orthogonalLoop=1;jettySize=auto;html=1;entryX=1;entryY=0.5;entryDx=0;entryDy=0;endArrow=none;endFill=0;exitX=0.5;exitY=1;exitDx=0;exitDy=0;" edge="1" parent="1" source="dB53JGvOFBfMMkXf-lnQ-27" target="dB53JGvOFBfMMkXf-lnQ-51">
          <mxGeometry relative="1" as="geometry">
            <mxPoint x="380" y="250" as="sourcePoint" />
            <mxPoint x="380" y="290" as="targetPoint" />
          </mxGeometry>
        </mxCell>
        <mxCell id="dB53JGvOFBfMMkXf-lnQ-67" style="edgeStyle=none;rounded=0;orthogonalLoop=1;jettySize=auto;html=1;entryX=0.5;entryY=0;entryDx=0;entryDy=0;endArrow=none;endFill=0;exitX=0.4;exitY=0.833;exitDx=0;exitDy=0;exitPerimeter=0;" edge="1" parent="1" source="dB53JGvOFBfMMkXf-lnQ-52" target="dB53JGvOFBfMMkXf-lnQ-32">
          <mxGeometry relative="1" as="geometry">
            <mxPoint x="755" y="270" as="sourcePoint" />
            <mxPoint x="755" y="308" as="targetPoint" />
          </mxGeometry>
        </mxCell>
        <mxCell id="dB53JGvOFBfMMkXf-lnQ-68" style="edgeStyle=none;rounded=0;orthogonalLoop=1;jettySize=auto;html=1;entryX=0.5;entryY=0;entryDx=0;entryDy=0;endArrow=none;endFill=0;exitX=0.6;exitY=0.833;exitDx=0;exitDy=0;exitPerimeter=0;" edge="1" parent="1" source="dB53JGvOFBfMMkXf-lnQ-52" target="dB53JGvOFBfMMkXf-lnQ-31">
          <mxGeometry relative="1" as="geometry">
            <mxPoint x="765" y="280" as="sourcePoint" />
            <mxPoint x="765" y="318" as="targetPoint" />
          </mxGeometry>
        </mxCell>
        <mxCell id="dB53JGvOFBfMMkXf-lnQ-69" style="edgeStyle=none;rounded=0;orthogonalLoop=1;jettySize=auto;html=1;entryX=0.5;entryY=0;entryDx=0;entryDy=0;endArrow=none;endFill=0;exitX=0.5;exitY=1;exitDx=0;exitDy=0;" edge="1" parent="1" source="dB53JGvOFBfMMkXf-lnQ-31" target="dB53JGvOFBfMMkXf-lnQ-40">
          <mxGeometry relative="1" as="geometry">
            <mxPoint x="645" y="310" as="sourcePoint" />
            <mxPoint x="645" y="348" as="targetPoint" />
          </mxGeometry>
        </mxCell>
        <mxCell id="dB53JGvOFBfMMkXf-lnQ-70" style="edgeStyle=none;rounded=0;orthogonalLoop=1;jettySize=auto;html=1;entryX=0.5;entryY=0;entryDx=0;entryDy=0;endArrow=none;endFill=0;exitX=0.5;exitY=1;exitDx=0;exitDy=0;" edge="1" parent="1" source="dB53JGvOFBfMMkXf-lnQ-32" target="dB53JGvOFBfMMkXf-lnQ-46">
          <mxGeometry relative="1" as="geometry">
            <mxPoint x="655" y="320" as="sourcePoint" />
            <mxPoint x="655" y="358" as="targetPoint" />
          </mxGeometry>
        </mxCell>
        <mxCell id="dB53JGvOFBfMMkXf-lnQ-71" style="edgeStyle=none;rounded=0;orthogonalLoop=1;jettySize=auto;html=1;entryX=0.5;entryY=0;entryDx=0;entryDy=0;endArrow=none;endFill=0;exitX=0.5;exitY=1;exitDx=0;exitDy=0;" edge="1" parent="1" source="dB53JGvOFBfMMkXf-lnQ-40" target="dB53JGvOFBfMMkXf-lnQ-33">
          <mxGeometry relative="1" as="geometry">
            <mxPoint x="795" y="330" as="sourcePoint" />
            <mxPoint x="795" y="368" as="targetPoint" />
          </mxGeometry>
        </mxCell>
        <mxCell id="dB53JGvOFBfMMkXf-lnQ-73" style="edgeStyle=none;rounded=0;orthogonalLoop=1;jettySize=auto;html=1;entryX=0.5;entryY=1;entryDx=0;entryDy=0;endArrow=none;endFill=0;exitX=0.5;exitY=0;exitDx=0;exitDy=0;" edge="1" parent="1" source="dB53JGvOFBfMMkXf-lnQ-43" target="dB53JGvOFBfMMkXf-lnQ-29">
          <mxGeometry relative="1" as="geometry">
            <mxPoint x="470" y="650" as="sourcePoint" />
            <mxPoint x="570" y="580" as="targetPoint" />
          </mxGeometry>
        </mxCell>
        <mxCell id="dB53JGvOFBfMMkXf-lnQ-74" style="edgeStyle=none;rounded=0;orthogonalLoop=1;jettySize=auto;html=1;entryX=1;entryY=0.5;entryDx=0;entryDy=0;endArrow=none;endFill=0;exitX=0;exitY=0.5;exitDx=0;exitDy=0;" edge="1" parent="1" source="dB53JGvOFBfMMkXf-lnQ-26" target="dB53JGvOFBfMMkXf-lnQ-43">
          <mxGeometry relative="1" as="geometry">
            <mxPoint x="240" y="670" as="sourcePoint" />
            <mxPoint x="320" y="580" as="targetPoint" />
            <Array as="points" />
          </mxGeometry>
        </mxCell>
        <mxCell id="dB53JGvOFBfMMkXf-lnQ-75" style="edgeStyle=none;rounded=0;orthogonalLoop=1;jettySize=auto;html=1;entryX=1;entryY=0.5;entryDx=0;entryDy=0;endArrow=none;endFill=0;exitX=0;exitY=0.5;exitDx=0;exitDy=0;" edge="1" parent="1" source="dB53JGvOFBfMMkXf-lnQ-41" target="dB53JGvOFBfMMkXf-lnQ-29">
          <mxGeometry relative="1" as="geometry">
            <mxPoint x="330" y="390" as="sourcePoint" />
            <mxPoint x="330" y="430" as="targetPoint" />
          </mxGeometry>
        </mxCell>
        <mxCell id="dB53JGvOFBfMMkXf-lnQ-77" style="edgeStyle=none;rounded=0;orthogonalLoop=1;jettySize=auto;html=1;entryX=1;entryY=0.5;entryDx=0;entryDy=0;endArrow=none;endFill=0;exitX=0;exitY=0.5;exitDx=0;exitDy=0;" edge="1" parent="1" source="dB53JGvOFBfMMkXf-lnQ-32" target="dB53JGvOFBfMMkXf-lnQ-41">
          <mxGeometry relative="1" as="geometry">
            <mxPoint x="340" y="380" as="sourcePoint" />
            <mxPoint x="340" y="420" as="targetPoint" />
          </mxGeometry>
        </mxCell>
        <mxCell id="dB53JGvOFBfMMkXf-lnQ-78" style="edgeStyle=none;rounded=0;orthogonalLoop=1;jettySize=auto;html=1;entryX=0.5;entryY=0;entryDx=0;entryDy=0;endArrow=none;endFill=0;exitX=0.5;exitY=1;exitDx=0;exitDy=0;" edge="1" parent="1" source="dB53JGvOFBfMMkXf-lnQ-46" target="dB53JGvOFBfMMkXf-lnQ-26">
          <mxGeometry relative="1" as="geometry">
            <mxPoint x="700" y="450" as="sourcePoint" />
            <mxPoint x="700" y="530" as="targetPoint" />
            <Array as="points" />
          </mxGeometry>
        </mxCell>
        <mxCell id="dB53JGvOFBfMMkXf-lnQ-79" value="Tem" style="rhombus;whiteSpace=wrap;html=1;" vertex="1" parent="1">
          <mxGeometry x="670" y="640" width="40" height="40" as="geometry" />
        </mxCell>
        <mxCell id="dB53JGvOFBfMMkXf-lnQ-80" style="edgeStyle=none;rounded=0;orthogonalLoop=1;jettySize=auto;html=1;entryX=0.5;entryY=1;entryDx=0;entryDy=0;endArrow=none;endFill=0;exitX=1;exitY=0.5;exitDx=0;exitDy=0;shape=link;" edge="1" parent="1" source="dB53JGvOFBfMMkXf-lnQ-79" target="dB53JGvOFBfMMkXf-lnQ-33">
          <mxGeometry relative="1" as="geometry">
            <mxPoint x="820" y="575" as="sourcePoint" />
            <mxPoint x="820" y="650" as="targetPoint" />
            <Array as="points">
              <mxPoint x="810" y="660" />
            </Array>
          </mxGeometry>
        </mxCell>
        <mxCell id="dB53JGvOFBfMMkXf-lnQ-81" style="edgeStyle=none;rounded=0;orthogonalLoop=1;jettySize=auto;html=1;entryX=0;entryY=0.5;entryDx=0;entryDy=0;endArrow=none;endFill=0;exitX=1;exitY=0.5;exitDx=0;exitDy=0;" edge="1" parent="1" source="dB53JGvOFBfMMkXf-lnQ-26" target="dB53JGvOFBfMMkXf-lnQ-79">
          <mxGeometry relative="1" as="geometry">
            <mxPoint x="720" y="670" as="sourcePoint" />
            <mxPoint x="780" y="670" as="targetPoint" />
          </mxGeometry>
        </mxCell>
        <mxCell id="dB53JGvOFBfMMkXf-lnQ-82" style="edgeStyle=none;rounded=0;orthogonalLoop=1;jettySize=auto;html=1;endArrow=none;endFill=0;entryX=0.5;entryY=1;entryDx=0;entryDy=0;exitX=0.5;exitY=1;exitDx=0;exitDy=0;" edge="1" parent="1" source="dB53JGvOFBfMMkXf-lnQ-47" target="dB53JGvOFBfMMkXf-lnQ-26">
          <mxGeometry relative="1" as="geometry">
            <mxPoint x="465" y="188" as="sourcePoint" />
            <mxPoint x="420" y="730" as="targetPoint" />
            <Array as="points">
              <mxPoint x="960" y="140" />
              <mxPoint x="960" y="440" />
              <mxPoint x="960" y="740" />
              <mxPoint x="570" y="740" />
            </Array>
          </mxGeometry>
        </mxCell>
        <mxCell id="dB53JGvOFBfMMkXf-lnQ-83" value="1" style="text;html=1;align=center;verticalAlign=middle;whiteSpace=wrap;rounded=0;" vertex="1" parent="1">
          <mxGeometry x="110" y="40" width="40" height="20" as="geometry" />
        </mxCell>
        <mxCell id="dB53JGvOFBfMMkXf-lnQ-84" value="N" style="text;html=1;align=center;verticalAlign=middle;whiteSpace=wrap;rounded=0;" vertex="1" parent="1">
          <mxGeometry x="365" y="40" width="40" height="20" as="geometry" />
        </mxCell>
        <mxCell id="dB53JGvOFBfMMkXf-lnQ-85" value="1" style="text;html=1;align=center;verticalAlign=middle;whiteSpace=wrap;rounded=0;" vertex="1" parent="1">
          <mxGeometry x="70" y="80" width="40" height="20" as="geometry" />
        </mxCell>
        <mxCell id="dB53JGvOFBfMMkXf-lnQ-86" value="N" style="text;html=1;align=center;verticalAlign=middle;whiteSpace=wrap;rounded=0;" vertex="1" parent="1">
          <mxGeometry x="70" y="260" width="40" height="20" as="geometry" />
        </mxCell>
        <mxCell id="dB53JGvOFBfMMkXf-lnQ-87" value="1" style="text;html=1;align=center;verticalAlign=middle;whiteSpace=wrap;rounded=0;" vertex="1" parent="1">
          <mxGeometry x="110" y="280" width="40" height="20" as="geometry" />
        </mxCell>
        <mxCell id="dB53JGvOFBfMMkXf-lnQ-88" value="N" style="text;html=1;align=center;verticalAlign=middle;whiteSpace=wrap;rounded=0;" vertex="1" parent="1">
          <mxGeometry x="310" y="440" width="40" height="20" as="geometry" />
        </mxCell>
        <mxCell id="dB53JGvOFBfMMkXf-lnQ-89" value="1" style="text;html=1;align=center;verticalAlign=middle;whiteSpace=wrap;rounded=0;" vertex="1" parent="1">
          <mxGeometry x="240" y="230" width="40" height="20" as="geometry" />
        </mxCell>
        <mxCell id="dB53JGvOFBfMMkXf-lnQ-90" value="1" style="text;html=1;align=center;verticalAlign=middle;whiteSpace=wrap;rounded=0;" vertex="1" parent="1">
          <mxGeometry x="310" y="260" width="40" height="20" as="geometry" />
        </mxCell>
        <mxCell id="dB53JGvOFBfMMkXf-lnQ-91" value="N" style="text;html=1;align=center;verticalAlign=middle;whiteSpace=wrap;rounded=0;" vertex="1" parent="1">
          <mxGeometry x="250" y="460" width="40" height="20" as="geometry" />
        </mxCell>
        <mxCell id="dB53JGvOFBfMMkXf-lnQ-95" value="1" style="text;html=1;align=center;verticalAlign=middle;whiteSpace=wrap;rounded=0;" vertex="1" parent="1">
          <mxGeometry x="70" y="540" width="40" height="20" as="geometry" />
        </mxCell>
        <mxCell id="dB53JGvOFBfMMkXf-lnQ-96" value="1" style="text;html=1;align=center;verticalAlign=middle;whiteSpace=wrap;rounded=0;" vertex="1" parent="1">
          <mxGeometry x="310" y="500" width="40" height="20" as="geometry" />
        </mxCell>
        <mxCell id="dB53JGvOFBfMMkXf-lnQ-97" value="1" style="text;html=1;align=center;verticalAlign=middle;whiteSpace=wrap;rounded=0;" vertex="1" parent="1">
          <mxGeometry x="505" y="640" width="40" height="20" as="geometry" />
        </mxCell>
        <mxCell id="dB53JGvOFBfMMkXf-lnQ-98" value="1" style="text;html=1;align=center;verticalAlign=middle;whiteSpace=wrap;rounded=0;" vertex="1" parent="1">
          <mxGeometry x="550" y="390" width="40" height="20" as="geometry" />
        </mxCell>
        <mxCell id="dB53JGvOFBfMMkXf-lnQ-99" value="N" style="text;html=1;align=center;verticalAlign=middle;whiteSpace=wrap;rounded=0;" vertex="1" parent="1">
          <mxGeometry x="350" y="460" width="40" height="20" as="geometry" />
        </mxCell>
        <mxCell id="dB53JGvOFBfMMkXf-lnQ-100" value="1" style="text;html=1;align=center;verticalAlign=middle;whiteSpace=wrap;rounded=0;" vertex="1" parent="1">
          <mxGeometry x="610" y="420" width="40" height="20" as="geometry" />
        </mxCell>
        <mxCell id="dB53JGvOFBfMMkXf-lnQ-101" value="N" style="text;html=1;align=center;verticalAlign=middle;whiteSpace=wrap;rounded=0;" vertex="1" parent="1">
          <mxGeometry x="560" y="620" width="40" height="20" as="geometry" />
        </mxCell>
        <mxCell id="dB53JGvOFBfMMkXf-lnQ-102" value="1" style="text;html=1;align=center;verticalAlign=middle;whiteSpace=wrap;rounded=0;" vertex="1" parent="1">
          <mxGeometry x="600" y="640" width="40" height="20" as="geometry" />
        </mxCell>
        <mxCell id="dB53JGvOFBfMMkXf-lnQ-104" value="1" style="text;html=1;align=center;verticalAlign=middle;whiteSpace=wrap;rounded=0;" vertex="1" parent="1">
          <mxGeometry x="800" y="420" width="40" height="20" as="geometry" />
        </mxCell>
        <mxCell id="dB53JGvOFBfMMkXf-lnQ-105" value="1" style="text;html=1;align=center;verticalAlign=middle;whiteSpace=wrap;rounded=0;" vertex="1" parent="1">
          <mxGeometry x="800" y="600" width="40" height="20" as="geometry" />
        </mxCell>
        <mxCell id="dB53JGvOFBfMMkXf-lnQ-120" value="N" style="text;html=1;align=center;verticalAlign=middle;whiteSpace=wrap;rounded=0;" vertex="1" parent="1">
          <mxGeometry x="800" y="540" width="40" height="20" as="geometry" />
        </mxCell>
        <mxCell id="dB53JGvOFBfMMkXf-lnQ-121" value="Nome" style="ellipse;whiteSpace=wrap;html=1;" vertex="1" parent="1">
          <mxGeometry x="370" y="-40" width="60" height="40" as="geometry" />
        </mxCell>
        <mxCell id="dB53JGvOFBfMMkXf-lnQ-122" value="Sexo" style="ellipse;whiteSpace=wrap;html=1;" vertex="1" parent="1">
          <mxGeometry x="450" y="-50" width="60" height="40" as="geometry" />
        </mxCell>
        <mxCell id="dB53JGvOFBfMMkXf-lnQ-123" value="Idade" style="ellipse;whiteSpace=wrap;html=1;" vertex="1" parent="1">
          <mxGeometry x="520" y="-10" width="60" height="40" as="geometry" />
        </mxCell>
        <mxCell id="dB53JGvOFBfMMkXf-lnQ-124" value="Contacto" style="ellipse;whiteSpace=wrap;html=1;" vertex="1" parent="1">
          <mxGeometry x="525" y="50" width="60" height="40" as="geometry" />
        </mxCell>
        <mxCell id="dB53JGvOFBfMMkXf-lnQ-127" value="&lt;u&gt;Validade&lt;/u&gt;" style="ellipse;whiteSpace=wrap;html=1;" vertex="1" parent="1">
          <mxGeometry x="10" y="640" width="60" height="40" as="geometry" />
        </mxCell>
        <mxCell id="dB53JGvOFBfMMkXf-lnQ-129" value="Morada" style="ellipse;whiteSpace=wrap;html=1;" vertex="1" parent="1">
          <mxGeometry x="70" y="-40" width="60" height="40" as="geometry" />
        </mxCell>
        <mxCell id="dB53JGvOFBfMMkXf-lnQ-130" value="Nome" style="ellipse;whiteSpace=wrap;html=1;" vertex="1" parent="1">
          <mxGeometry x="-20" y="-40" width="60" height="40" as="geometry" />
        </mxCell>
        <mxCell id="dB53JGvOFBfMMkXf-lnQ-131" value="NIF" style="ellipse;whiteSpace=wrap;html=1;" vertex="1" parent="1">
          <mxGeometry x="-70" y="10" width="60" height="40" as="geometry" />
        </mxCell>
        <mxCell id="dB53JGvOFBfMMkXf-lnQ-132" value="Contacto" style="ellipse;whiteSpace=wrap;html=1;" vertex="1" parent="1">
          <mxGeometry x="-70" y="70" width="60" height="40" as="geometry" />
        </mxCell>
        <mxCell id="dB53JGvOFBfMMkXf-lnQ-134" value="&lt;u&gt;Nº funcionario&lt;/u&gt;" style="ellipse;whiteSpace=wrap;html=1;" vertex="1" parent="1">
          <mxGeometry x="810" y="220" width="80" height="40" as="geometry" />
        </mxCell>
        <mxCell id="dB53JGvOFBfMMkXf-lnQ-135" value="&lt;u&gt;Nº utente SNS&lt;/u&gt;" style="ellipse;whiteSpace=wrap;html=1;" vertex="1" parent="1">
          <mxGeometry x="860" y="510" width="80" height="40" as="geometry" />
        </mxCell>
        <mxCell id="dB53JGvOFBfMMkXf-lnQ-136" value="Tipo Sangue" style="ellipse;whiteSpace=wrap;html=1;" vertex="1" parent="1">
          <mxGeometry x="880" y="560" width="60" height="40" as="geometry" />
        </mxCell>
        <mxCell id="dB53JGvOFBfMMkXf-lnQ-137" value="Nome" style="ellipse;whiteSpace=wrap;html=1;" vertex="1" parent="1">
          <mxGeometry x="860" y="610" width="60" height="40" as="geometry" />
        </mxCell>
        <mxCell id="dB53JGvOFBfMMkXf-lnQ-138" value="Diagnostico" style="ellipse;whiteSpace=wrap;html=1;" vertex="1" parent="1">
          <mxGeometry x="690" y="530" width="60" height="40" as="geometry" />
        </mxCell>
        <mxCell id="dB53JGvOFBfMMkXf-lnQ-139" value="Tratamento" style="ellipse;whiteSpace=wrap;html=1;" vertex="1" parent="1">
          <mxGeometry x="690" y="590" width="60" height="40" as="geometry" />
        </mxCell>
        <mxCell id="dB53JGvOFBfMMkXf-lnQ-140" value="&lt;u&gt;Nº paciente&lt;/u&gt;" style="ellipse;whiteSpace=wrap;html=1;" vertex="1" parent="1">
          <mxGeometry x="445" y="700" width="80" height="40" as="geometry" />
        </mxCell>
        <mxCell id="dB53JGvOFBfMMkXf-lnQ-141" value="&lt;u&gt;ID&lt;/u&gt;" style="ellipse;whiteSpace=wrap;html=1;" vertex="1" parent="1">
          <mxGeometry x="80" y="640" width="60" height="40" as="geometry" />
        </mxCell>
        <mxCell id="dB53JGvOFBfMMkXf-lnQ-142" value="Colestrol" style="ellipse;whiteSpace=wrap;html=1;" vertex="1" parent="1">
          <mxGeometry x="-60" y="600" width="60" height="40" as="geometry" />
        </mxCell>
        <mxCell id="dB53JGvOFBfMMkXf-lnQ-143" value="HIV" style="ellipse;whiteSpace=wrap;html=1;" vertex="1" parent="1">
          <mxGeometry x="-60" y="540" width="60" height="40" as="geometry" />
        </mxCell>
        <mxCell id="dB53JGvOFBfMMkXf-lnQ-144" value="&lt;u&gt;Nº dador&lt;/u&gt;" style="ellipse;whiteSpace=wrap;html=1;" vertex="1" parent="1">
          <mxGeometry x="415" y="220" width="80" height="40" as="geometry" />
        </mxCell>
        <mxCell id="dB53JGvOFBfMMkXf-lnQ-145" value="&lt;u&gt;ID&lt;/u&gt;" style="ellipse;whiteSpace=wrap;html=1;" vertex="1" parent="1">
          <mxGeometry x="360" y="520" width="80" height="40" as="geometry" />
        </mxCell>
        <mxCell id="dB53JGvOFBfMMkXf-lnQ-146" value="Tipo sangue" style="ellipse;whiteSpace=wrap;html=1;" vertex="1" parent="1">
          <mxGeometry x="200" y="520" width="80" height="40" as="geometry" />
        </mxCell>
        <mxCell id="dB53JGvOFBfMMkXf-lnQ-147" value="Data validade" style="ellipse;whiteSpace=wrap;html=1;" vertex="1" parent="1">
          <mxGeometry x="200" y="400" width="80" height="40" as="geometry" />
        </mxCell>
        <mxCell id="dB53JGvOFBfMMkXf-lnQ-148" value="Dador" style="ellipse;whiteSpace=wrap;html=1;" vertex="1" parent="1">
          <mxGeometry x="360" y="400" width="80" height="40" as="geometry" />
        </mxCell>
        <mxCell id="dB53JGvOFBfMMkXf-lnQ-149" value="Nº utente SNS" style="ellipse;whiteSpace=wrap;html=1;" vertex="1" parent="1">
          <mxGeometry x="-60" y="220" width="80" height="40" as="geometry" />
        </mxCell>
        <mxCell id="dB53JGvOFBfMMkXf-lnQ-150" value="&lt;u&gt;Nº dador&lt;/u&gt;" style="ellipse;whiteSpace=wrap;html=1;" vertex="1" parent="1">
          <mxGeometry x="-100" y="270" width="80" height="40" as="geometry" />
        </mxCell>
        <mxCell id="dB53JGvOFBfMMkXf-lnQ-152" value="Tipo Sangue" style="ellipse;whiteSpace=wrap;html=1;" vertex="1" parent="1">
          <mxGeometry x="-90" y="330" width="80" height="40" as="geometry" />
        </mxCell>
        <mxCell id="dB53JGvOFBfMMkXf-lnQ-153" value="Entidade&lt;div&gt;Fornecedor&lt;/div&gt;" style="ellipse;whiteSpace=wrap;html=1;" vertex="1" parent="1">
          <mxGeometry x="-10" y="360" width="80" height="40" as="geometry" />
        </mxCell>
        <mxCell id="dB53JGvOFBfMMkXf-lnQ-154" value="Nome" style="ellipse;whiteSpace=wrap;html=1;" vertex="1" parent="1">
          <mxGeometry x="80" y="360" width="80" height="40" as="geometry" />
        </mxCell>
        <mxCell id="dB53JGvOFBfMMkXf-lnQ-155" style="edgeStyle=none;rounded=0;orthogonalLoop=1;jettySize=auto;html=1;entryX=0;entryY=0;entryDx=0;entryDy=0;endArrow=none;endFill=0;exitX=1;exitY=1;exitDx=0;exitDy=0;" edge="1" parent="1" source="dB53JGvOFBfMMkXf-lnQ-149" target="dB53JGvOFBfMMkXf-lnQ-2">
          <mxGeometry relative="1" as="geometry">
            <mxPoint x="90" y="210" as="sourcePoint" />
            <mxPoint x="90" y="290" as="targetPoint" />
          </mxGeometry>
        </mxCell>
        <mxCell id="dB53JGvOFBfMMkXf-lnQ-156" style="edgeStyle=none;rounded=0;orthogonalLoop=1;jettySize=auto;html=1;entryX=0;entryY=0.25;entryDx=0;entryDy=0;endArrow=none;endFill=0;exitX=1;exitY=0.5;exitDx=0;exitDy=0;" edge="1" parent="1" source="dB53JGvOFBfMMkXf-lnQ-150" target="dB53JGvOFBfMMkXf-lnQ-2">
          <mxGeometry relative="1" as="geometry">
            <mxPoint x="18" y="264" as="sourcePoint" />
            <mxPoint x="50" y="290" as="targetPoint" />
          </mxGeometry>
        </mxCell>
        <mxCell id="dB53JGvOFBfMMkXf-lnQ-157" style="edgeStyle=none;rounded=0;orthogonalLoop=1;jettySize=auto;html=1;entryX=0;entryY=0.75;entryDx=0;entryDy=0;endArrow=none;endFill=0;exitX=1;exitY=0;exitDx=0;exitDy=0;" edge="1" parent="1" source="dB53JGvOFBfMMkXf-lnQ-152" target="dB53JGvOFBfMMkXf-lnQ-2">
          <mxGeometry relative="1" as="geometry">
            <mxPoint x="28" y="274" as="sourcePoint" />
            <mxPoint x="60" y="300" as="targetPoint" />
          </mxGeometry>
        </mxCell>
        <mxCell id="dB53JGvOFBfMMkXf-lnQ-158" style="edgeStyle=none;rounded=0;orthogonalLoop=1;jettySize=auto;html=1;entryX=0.25;entryY=1;entryDx=0;entryDy=0;endArrow=none;endFill=0;exitX=0.5;exitY=0;exitDx=0;exitDy=0;" edge="1" parent="1" source="dB53JGvOFBfMMkXf-lnQ-153" target="dB53JGvOFBfMMkXf-lnQ-2">
          <mxGeometry relative="1" as="geometry">
            <mxPoint x="-12" y="346" as="sourcePoint" />
            <mxPoint x="50" y="310" as="targetPoint" />
          </mxGeometry>
        </mxCell>
        <mxCell id="dB53JGvOFBfMMkXf-lnQ-159" style="edgeStyle=none;rounded=0;orthogonalLoop=1;jettySize=auto;html=1;entryX=0.75;entryY=1;entryDx=0;entryDy=0;endArrow=none;endFill=0;exitX=0.5;exitY=0;exitDx=0;exitDy=0;" edge="1" parent="1" source="dB53JGvOFBfMMkXf-lnQ-154" target="dB53JGvOFBfMMkXf-lnQ-2">
          <mxGeometry relative="1" as="geometry">
            <mxPoint x="-12" y="346" as="sourcePoint" />
            <mxPoint x="50" y="320" as="targetPoint" />
          </mxGeometry>
        </mxCell>
        <mxCell id="dB53JGvOFBfMMkXf-lnQ-160" style="edgeStyle=none;rounded=0;orthogonalLoop=1;jettySize=auto;html=1;entryX=1;entryY=1;entryDx=0;entryDy=0;endArrow=none;endFill=0;exitX=0.25;exitY=0;exitDx=0;exitDy=0;" edge="1" parent="1" source="dB53JGvOFBfMMkXf-lnQ-29" target="dB53JGvOFBfMMkXf-lnQ-147">
          <mxGeometry relative="1" as="geometry">
            <mxPoint x="130" y="370" as="sourcePoint" />
            <mxPoint x="110" y="330" as="targetPoint" />
          </mxGeometry>
        </mxCell>
        <mxCell id="dB53JGvOFBfMMkXf-lnQ-161" style="edgeStyle=none;rounded=0;orthogonalLoop=1;jettySize=auto;html=1;entryX=0;entryY=1;entryDx=0;entryDy=0;endArrow=none;endFill=0;exitX=0.75;exitY=0;exitDx=0;exitDy=0;" edge="1" parent="1" source="dB53JGvOFBfMMkXf-lnQ-29" target="dB53JGvOFBfMMkXf-lnQ-148">
          <mxGeometry relative="1" as="geometry">
            <mxPoint x="370" y="450" as="sourcePoint" />
            <mxPoint x="278" y="444" as="targetPoint" />
          </mxGeometry>
        </mxCell>
        <mxCell id="dB53JGvOFBfMMkXf-lnQ-162" style="edgeStyle=none;rounded=0;orthogonalLoop=1;jettySize=auto;html=1;entryX=1;entryY=0;entryDx=0;entryDy=0;endArrow=none;endFill=0;exitX=0.25;exitY=1;exitDx=0;exitDy=0;" edge="1" parent="1" source="dB53JGvOFBfMMkXf-lnQ-29" target="dB53JGvOFBfMMkXf-lnQ-146">
          <mxGeometry relative="1" as="geometry">
            <mxPoint x="320" y="480" as="sourcePoint" />
            <mxPoint x="288" y="454" as="targetPoint" />
          </mxGeometry>
        </mxCell>
        <mxCell id="dB53JGvOFBfMMkXf-lnQ-163" style="edgeStyle=none;rounded=0;orthogonalLoop=1;jettySize=auto;html=1;entryX=0;entryY=0;entryDx=0;entryDy=0;endArrow=none;endFill=0;exitX=0.75;exitY=1;exitDx=0;exitDy=0;" edge="1" parent="1" source="dB53JGvOFBfMMkXf-lnQ-29" target="dB53JGvOFBfMMkXf-lnQ-145">
          <mxGeometry relative="1" as="geometry">
            <mxPoint x="330" y="490" as="sourcePoint" />
            <mxPoint x="298" y="464" as="targetPoint" />
          </mxGeometry>
        </mxCell>
        <mxCell id="dB53JGvOFBfMMkXf-lnQ-164" style="edgeStyle=none;rounded=0;orthogonalLoop=1;jettySize=auto;html=1;entryX=0.5;entryY=0;entryDx=0;entryDy=0;endArrow=none;endFill=0;exitX=0.75;exitY=1;exitDx=0;exitDy=0;" edge="1" parent="1" source="dB53JGvOFBfMMkXf-lnQ-30" target="dB53JGvOFBfMMkXf-lnQ-141">
          <mxGeometry relative="1" as="geometry">
            <mxPoint x="310" y="510" as="sourcePoint" />
            <mxPoint x="278" y="536" as="targetPoint" />
          </mxGeometry>
        </mxCell>
        <mxCell id="dB53JGvOFBfMMkXf-lnQ-165" style="edgeStyle=none;rounded=0;orthogonalLoop=1;jettySize=auto;html=1;entryX=0.5;entryY=0;entryDx=0;entryDy=0;endArrow=none;endFill=0;exitX=0.25;exitY=1;exitDx=0;exitDy=0;" edge="1" parent="1" source="dB53JGvOFBfMMkXf-lnQ-30" target="dB53JGvOFBfMMkXf-lnQ-127">
          <mxGeometry relative="1" as="geometry">
            <mxPoint x="110" y="610" as="sourcePoint" />
            <mxPoint x="130" y="650" as="targetPoint" />
          </mxGeometry>
        </mxCell>
        <mxCell id="dB53JGvOFBfMMkXf-lnQ-166" style="edgeStyle=none;rounded=0;orthogonalLoop=1;jettySize=auto;html=1;entryX=1;entryY=0.5;entryDx=0;entryDy=0;endArrow=none;endFill=0;exitX=0;exitY=0.25;exitDx=0;exitDy=0;" edge="1" parent="1" source="dB53JGvOFBfMMkXf-lnQ-30" target="dB53JGvOFBfMMkXf-lnQ-143">
          <mxGeometry relative="1" as="geometry">
            <mxPoint x="90" y="610" as="sourcePoint" />
            <mxPoint x="70" y="670" as="targetPoint" />
          </mxGeometry>
        </mxCell>
        <mxCell id="dB53JGvOFBfMMkXf-lnQ-167" style="edgeStyle=none;rounded=0;orthogonalLoop=1;jettySize=auto;html=1;entryX=1;entryY=0.5;entryDx=0;entryDy=0;endArrow=none;endFill=0;exitX=0;exitY=0.75;exitDx=0;exitDy=0;" edge="1" parent="1" source="dB53JGvOFBfMMkXf-lnQ-30" target="dB53JGvOFBfMMkXf-lnQ-142">
          <mxGeometry relative="1" as="geometry">
            <mxPoint x="50" y="580" as="sourcePoint" />
            <mxPoint x="10" y="570" as="targetPoint" />
          </mxGeometry>
        </mxCell>
        <mxCell id="dB53JGvOFBfMMkXf-lnQ-168" style="edgeStyle=none;rounded=0;orthogonalLoop=1;jettySize=auto;html=1;entryX=0.25;entryY=1;entryDx=0;entryDy=0;endArrow=none;endFill=0;exitX=1;exitY=0;exitDx=0;exitDy=0;" edge="1" parent="1" source="dB53JGvOFBfMMkXf-lnQ-140" target="dB53JGvOFBfMMkXf-lnQ-26">
          <mxGeometry relative="1" as="geometry">
            <mxPoint x="350" y="510" as="sourcePoint" />
            <mxPoint x="382" y="536" as="targetPoint" />
          </mxGeometry>
        </mxCell>
        <mxCell id="dB53JGvOFBfMMkXf-lnQ-169" style="edgeStyle=none;rounded=0;orthogonalLoop=1;jettySize=auto;html=1;entryX=0;entryY=0.75;entryDx=0;entryDy=0;endArrow=none;endFill=0;exitX=1;exitY=0;exitDx=0;exitDy=0;" edge="1" parent="1" source="dB53JGvOFBfMMkXf-lnQ-139" target="dB53JGvOFBfMMkXf-lnQ-33">
          <mxGeometry relative="1" as="geometry">
            <mxPoint x="523" y="716" as="sourcePoint" />
            <mxPoint x="560" y="690" as="targetPoint" />
          </mxGeometry>
        </mxCell>
        <mxCell id="dB53JGvOFBfMMkXf-lnQ-170" style="edgeStyle=none;rounded=0;orthogonalLoop=1;jettySize=auto;html=1;entryX=0;entryY=0.25;entryDx=0;entryDy=0;endArrow=none;endFill=0;exitX=1;exitY=1;exitDx=0;exitDy=0;" edge="1" parent="1" source="dB53JGvOFBfMMkXf-lnQ-138" target="dB53JGvOFBfMMkXf-lnQ-33">
          <mxGeometry relative="1" as="geometry">
            <mxPoint x="751" y="606" as="sourcePoint" />
            <mxPoint x="780" y="600" as="targetPoint" />
          </mxGeometry>
        </mxCell>
        <mxCell id="dB53JGvOFBfMMkXf-lnQ-171" style="edgeStyle=none;rounded=0;orthogonalLoop=1;jettySize=auto;html=1;entryX=0;entryY=1;entryDx=0;entryDy=0;endArrow=none;endFill=0;exitX=1;exitY=0.25;exitDx=0;exitDy=0;" edge="1" parent="1" source="dB53JGvOFBfMMkXf-lnQ-33" target="dB53JGvOFBfMMkXf-lnQ-135">
          <mxGeometry relative="1" as="geometry">
            <mxPoint x="751" y="574" as="sourcePoint" />
            <mxPoint x="780" y="580" as="targetPoint" />
          </mxGeometry>
        </mxCell>
        <mxCell id="dB53JGvOFBfMMkXf-lnQ-172" style="edgeStyle=none;rounded=0;orthogonalLoop=1;jettySize=auto;html=1;entryX=0;entryY=0;entryDx=0;entryDy=0;endArrow=none;endFill=0;exitX=1;exitY=0.75;exitDx=0;exitDy=0;" edge="1" parent="1" source="dB53JGvOFBfMMkXf-lnQ-33" target="dB53JGvOFBfMMkXf-lnQ-137">
          <mxGeometry relative="1" as="geometry">
            <mxPoint x="860" y="580" as="sourcePoint" />
            <mxPoint x="882" y="554" as="targetPoint" />
          </mxGeometry>
        </mxCell>
        <mxCell id="dB53JGvOFBfMMkXf-lnQ-173" style="edgeStyle=none;rounded=0;orthogonalLoop=1;jettySize=auto;html=1;entryX=0;entryY=0.5;entryDx=0;entryDy=0;endArrow=none;endFill=0;exitX=1;exitY=0.5;exitDx=0;exitDy=0;" edge="1" parent="1" source="dB53JGvOFBfMMkXf-lnQ-33" target="dB53JGvOFBfMMkXf-lnQ-136">
          <mxGeometry relative="1" as="geometry">
            <mxPoint x="860" y="600" as="sourcePoint" />
            <mxPoint x="879" y="626" as="targetPoint" />
          </mxGeometry>
        </mxCell>
        <mxCell id="dB53JGvOFBfMMkXf-lnQ-174" style="edgeStyle=none;rounded=0;orthogonalLoop=1;jettySize=auto;html=1;entryX=0;entryY=0.5;entryDx=0;entryDy=0;endArrow=none;endFill=0;exitX=1;exitY=0.5;exitDx=0;exitDy=0;" edge="1" parent="1" source="dB53JGvOFBfMMkXf-lnQ-27" target="dB53JGvOFBfMMkXf-lnQ-134">
          <mxGeometry relative="1" as="geometry">
            <mxPoint x="860" y="590" as="sourcePoint" />
            <mxPoint x="890" y="590" as="targetPoint" />
          </mxGeometry>
        </mxCell>
        <mxCell id="dB53JGvOFBfMMkXf-lnQ-175" style="edgeStyle=none;rounded=0;orthogonalLoop=1;jettySize=auto;html=1;endArrow=none;endFill=0;exitX=1;exitY=0.5;exitDx=0;exitDy=0;entryX=0;entryY=0.5;entryDx=0;entryDy=0;" edge="1" parent="1" source="dB53JGvOFBfMMkXf-lnQ-25" target="dB53JGvOFBfMMkXf-lnQ-144">
          <mxGeometry relative="1" as="geometry">
            <mxPoint x="795" y="250" as="sourcePoint" />
            <mxPoint x="390" y="230" as="targetPoint" />
          </mxGeometry>
        </mxCell>
        <mxCell id="dB53JGvOFBfMMkXf-lnQ-176" style="edgeStyle=none;rounded=0;orthogonalLoop=1;jettySize=auto;html=1;endArrow=none;endFill=0;exitX=0.5;exitY=1;exitDx=0;exitDy=0;entryX=0.25;entryY=0;entryDx=0;entryDy=0;" edge="1" parent="1" source="dB53JGvOFBfMMkXf-lnQ-121" target="dB53JGvOFBfMMkXf-lnQ-24">
          <mxGeometry relative="1" as="geometry">
            <mxPoint x="420" y="20" as="sourcePoint" />
            <mxPoint x="475" y="20" as="targetPoint" />
          </mxGeometry>
        </mxCell>
        <mxCell id="dB53JGvOFBfMMkXf-lnQ-177" style="edgeStyle=none;rounded=0;orthogonalLoop=1;jettySize=auto;html=1;endArrow=none;endFill=0;entryX=0.75;entryY=0;entryDx=0;entryDy=0;" edge="1" parent="1" target="dB53JGvOFBfMMkXf-lnQ-24">
          <mxGeometry relative="1" as="geometry">
            <mxPoint x="480" y="-10" as="sourcePoint" />
            <mxPoint x="430" y="50" as="targetPoint" />
          </mxGeometry>
        </mxCell>
        <mxCell id="dB53JGvOFBfMMkXf-lnQ-178" style="edgeStyle=none;rounded=0;orthogonalLoop=1;jettySize=auto;html=1;endArrow=none;endFill=0;exitX=0;exitY=1;exitDx=0;exitDy=0;entryX=1;entryY=0.25;entryDx=0;entryDy=0;" edge="1" parent="1" source="dB53JGvOFBfMMkXf-lnQ-123" target="dB53JGvOFBfMMkXf-lnQ-24">
          <mxGeometry relative="1" as="geometry">
            <mxPoint x="480" y="-10" as="sourcePoint" />
            <mxPoint x="470" y="50" as="targetPoint" />
          </mxGeometry>
        </mxCell>
        <mxCell id="dB53JGvOFBfMMkXf-lnQ-179" style="edgeStyle=none;rounded=0;orthogonalLoop=1;jettySize=auto;html=1;endArrow=none;endFill=0;exitX=0;exitY=0.5;exitDx=0;exitDy=0;entryX=1;entryY=0.75;entryDx=0;entryDy=0;" edge="1" parent="1" source="dB53JGvOFBfMMkXf-lnQ-124" target="dB53JGvOFBfMMkXf-lnQ-24">
          <mxGeometry relative="1" as="geometry">
            <mxPoint x="529" y="24" as="sourcePoint" />
            <mxPoint x="490" y="60" as="targetPoint" />
          </mxGeometry>
        </mxCell>
        <mxCell id="dB53JGvOFBfMMkXf-lnQ-180" style="edgeStyle=none;rounded=0;orthogonalLoop=1;jettySize=auto;html=1;entryX=0.75;entryY=0;entryDx=0;entryDy=0;endArrow=none;endFill=0;exitX=0.5;exitY=1;exitDx=0;exitDy=0;" edge="1" parent="1" source="dB53JGvOFBfMMkXf-lnQ-129" target="dB53JGvOFBfMMkXf-lnQ-16">
          <mxGeometry relative="1" as="geometry">
            <mxPoint x="130" y="70" as="sourcePoint" />
            <mxPoint x="270" y="70" as="targetPoint" />
          </mxGeometry>
        </mxCell>
        <mxCell id="dB53JGvOFBfMMkXf-lnQ-181" style="edgeStyle=none;rounded=0;orthogonalLoop=1;jettySize=auto;html=1;entryX=0.25;entryY=0;entryDx=0;entryDy=0;endArrow=none;endFill=0;exitX=1;exitY=1;exitDx=0;exitDy=0;" edge="1" parent="1" source="dB53JGvOFBfMMkXf-lnQ-130" target="dB53JGvOFBfMMkXf-lnQ-16">
          <mxGeometry relative="1" as="geometry">
            <mxPoint x="110" y="10" as="sourcePoint" />
            <mxPoint x="110" y="50" as="targetPoint" />
          </mxGeometry>
        </mxCell>
        <mxCell id="dB53JGvOFBfMMkXf-lnQ-182" style="edgeStyle=none;rounded=0;orthogonalLoop=1;jettySize=auto;html=1;entryX=0;entryY=0.25;entryDx=0;entryDy=0;endArrow=none;endFill=0;exitX=1;exitY=0.5;exitDx=0;exitDy=0;" edge="1" parent="1" source="dB53JGvOFBfMMkXf-lnQ-131" target="dB53JGvOFBfMMkXf-lnQ-16">
          <mxGeometry relative="1" as="geometry">
            <mxPoint x="41" y="4" as="sourcePoint" />
            <mxPoint x="70" y="50" as="targetPoint" />
          </mxGeometry>
        </mxCell>
        <mxCell id="dB53JGvOFBfMMkXf-lnQ-183" style="edgeStyle=none;rounded=0;orthogonalLoop=1;jettySize=auto;html=1;entryX=0;entryY=0.75;entryDx=0;entryDy=0;endArrow=none;endFill=0;exitX=1;exitY=0.5;exitDx=0;exitDy=0;" edge="1" parent="1" source="dB53JGvOFBfMMkXf-lnQ-132" target="dB53JGvOFBfMMkXf-lnQ-16">
          <mxGeometry relative="1" as="geometry">
            <mxPoint y="40" as="sourcePoint" />
            <mxPoint x="50" y="60" as="targetPoint" />
          </mxGeometry>
        </mxCell>
      </root>
    </mxGraphModel>
  </diagram>
</mxfile>
